<?xml version="1.0" encoding="utf-8"?>
<svg version="1.1" id="Ebene_1" xmlns="http://www.w3.org/2000/svg" xmlns:xlink="http://www.w3.org/1999/xlink" x="0px" y="0px"
	 viewBox="0 0 1000 300" style="enable-background:new 0 0 1000 300;" xml:space="preserve">
<style type="text/css">
	.st0{fill:#23388C;}
	.st1{fill:#007433;}
</style>
<path class="st0" d="M224.3,46.1h-59.51c-4.91-11.85-16.58-20.18-30.2-20.18s-25.29,8.34-30.2,20.18H44.86
	c-5.19,0-9.39,4.2-9.39,9.39v0c0,5.19,4.2,9.39,9.39,9.39H224.3c5.19,0,9.39-4.2,9.39-9.39v0C233.69,50.31,229.49,46.1,224.3,46.1z
	 M134.58,33.96c9.05,0,16.95,4.88,21.24,12.14h-42.48C117.63,38.84,125.53,33.96,134.58,33.96z"/>
<path class="st0" d="M215,70.45H54.16c-5.77,0-10.26,5.78-9.62,12.39c5.82,60.44,11.65,120.87,17.47,181.31
	c0.54,5.65,4.69,9.93,9.62,9.93h125.9c4.93,0,9.08-4.28,9.62-9.93c5.82-60.44,11.65-120.87,17.47-181.31
	C225.26,76.23,220.77,70.45,215,70.45z M89.37,252.41c0,3.91-2.89,7.08-6.46,7.08h0c-3.57,0-6.46-3.17-6.46-7.08V94.54
	c0-3.91,2.89-7.08,6.46-7.08h0c3.57,0,6.46,3.17,6.46,7.08V252.41z M115.21,252.41c0,3.91-2.89,7.08-6.46,7.08s-6.46-3.17-6.46-7.08
	V94.54c0-3.91,2.89-7.08,6.46-7.08s6.46,3.17,6.46,7.08V252.41z M141.04,252.41c0,3.91-2.89,7.08-6.46,7.08h0
	c-3.57,0-6.46-3.17-6.46-7.08V94.54c0-3.91,2.89-7.08,6.46-7.08h0c3.57,0,6.46,3.17,6.46,7.08V252.41z M166.87,252.74
	c0,3.91-2.89,7.08-6.46,7.08s-6.46-3.17-6.46-7.08V94.87c0-3.91,2.89-7.08,6.46-7.08s6.46,3.17,6.46,7.08V252.74z M192.71,252.41
	c0,3.91-2.89,7.08-6.46,7.08h0c-3.57,0-6.46-3.17-6.46-7.08V94.54c0-3.91,2.89-7.08,6.46-7.08h0c3.57,0,6.46,3.17,6.46,7.08V252.41z
	"/>
<g>
	<path class="st1" d="M302.13,153.3v9.46c0,1.62,1.31,2.94,2.94,2.94h8.83c1.62,0,2.94,1.31,2.94,2.94v1.95
		c0,1.62-1.31,2.94-2.94,2.94h-8.83c-1.62,0-2.94,1.31-2.94,2.94v27.52c0,7,1.98,10.97,7.7,10.97c1.08,0,2.04-0.06,2.89-0.15
		c1.67-0.18,3.16,1.06,3.26,2.74l0.13,2.11c0.09,1.44-0.88,2.73-2.29,3.05c-1.8,0.41-4.06,0.66-6.67,0.66
		c-4.78,0-8.63-1.52-11.08-4.32c-2.92-3.03-3.97-8.05-3.97-14.7v-27.87c0-1.62-1.31-2.94-2.94-2.94h-2.88
		c-1.62,0-2.94-1.31-2.94-2.94v-1.95c0-1.62,1.31-2.94,2.94-2.94h2.88c1.62,0,2.94-1.31,2.94-2.94v-8.35c0-1.33,0.89-2.49,2.18-2.84
		l4.16-1.11C300.3,149.97,302.13,151.37,302.13,153.3z"/>
	<path class="st1" d="M328.39,183.32c0-5.37-0.08-10.14-0.29-14.54c-0.08-1.68,1.25-3.08,2.93-3.08h3.03c1.58,0,2.88,1.26,2.93,2.84
		l0.26,8.24h0.47c2.57-7.58,8.75-12.37,15.64-12.37c0.01,0,0.02,0,0.03,0c1.6,0,2.88,1.33,2.88,2.94v3.82
		c0,1.64-1.34,2.97-2.97,2.93c-0.17,0-0.35-0.01-0.53-0.01c-7.23,0-12.37,5.48-13.77,13.18c-0.23,1.4-0.47,3.03-0.47,4.78v27.17
		c0,1.62-1.31,2.94-2.94,2.94h-4.28c-1.62,0-2.94-1.31-2.94-2.94V183.32z"/>
	<path class="st1" d="M399.85,222.17c-1.49,0-2.75-1.12-2.92-2.6l-0.52-4.52h-0.35c-3.15,4.43-9.22,8.4-17.27,8.4
		c-11.44,0-17.27-8.05-17.27-16.22c0-13.65,12.14-21.12,33.96-21v-1.17c0-4.67-1.28-13.07-12.84-13.07c-4.09,0-8.32,0.99-11.87,2.64
		c-1.56,0.73-3.41-0.1-3.97-1.72l-0.41-1.2c-0.48-1.4,0.16-2.92,1.48-3.59c4.47-2.28,10.25-3.71,16.28-3.71
		c17.27,0,21.47,11.79,21.47,23.1v21.12c0,3.6,0.13,7.14,0.47,10.3c0.19,1.73-1.17,3.24-2.92,3.24H399.85z M395.71,196.29
		c0-1.64-1.34-2.97-2.97-2.94c-10.36,0.19-20.95,2.72-20.95,12.72c0,6.65,4.43,9.8,9.69,9.8c7.35,0,12.02-4.67,13.65-9.45
		c0.35-1.05,0.58-2.22,0.58-3.27V196.29z"/>
	<path class="st1" d="M419.7,215.01c0.55-1.68,2.43-2.47,4.04-1.74c2.99,1.37,6.86,2.48,10.6,2.48c7.47,0,10.97-3.73,10.97-8.4
		c0-4.9-2.92-7.58-10.5-10.38c-10.15-3.62-14.94-9.22-14.94-15.99c0-9.1,7.35-16.57,19.49-16.57c4.39,0,8.37,0.96,11.41,2.26
		c1.43,0.61,2.15,2.2,1.65,3.67l-0.63,1.83c-0.56,1.62-2.37,2.41-3.94,1.74c-2.25-0.96-5.23-1.79-8.71-1.79
		c-6.07,0-9.45,3.5-9.45,7.7c0,4.67,3.38,6.77,10.73,9.57c9.8,3.73,14.82,8.63,14.82,17.04c0,9.92-7.7,16.92-21.12,16.92
		c-5.04,0-9.77-1.01-13.49-2.64c-1.38-0.61-2.06-2.17-1.59-3.6L419.7,215.01z"/>
	<path class="st1" d="M471.34,139.33h4.4c1.62,0,2.94,1.31,2.94,2.94v32.3h0.23c1.63-2.92,4.2-5.48,7.35-7.23
		c3.03-1.75,6.65-2.92,10.5-2.92c7.58,0,19.72,4.67,19.72,24.15v30.67c0,1.62-1.31,2.94-2.94,2.94h-4.4c-1.62,0-2.94-1.31-2.94-2.94
		v-29.5c0-9.1-3.38-16.8-13.07-16.8c-6.65,0-11.9,4.67-13.77,10.27c-0.58,1.4-0.7,2.92-0.7,4.9v31.14c0,1.62-1.31,2.94-2.94,2.94
		h-4.4c-1.62,0-2.94-1.31-2.94-2.94v-76.98C468.4,140.64,469.72,139.33,471.34,139.33z"/>
	<path class="st1" d="M530.66,215.01c0.55-1.68,2.43-2.47,4.04-1.74c2.99,1.37,6.86,2.48,10.6,2.48c7.47,0,10.97-3.73,10.97-8.4
		c0-4.9-2.92-7.58-10.5-10.38c-10.15-3.62-14.94-9.22-14.94-15.99c0-9.1,7.35-16.57,19.49-16.57c4.39,0,8.37,0.96,11.4,2.26
		c1.43,0.61,2.15,2.2,1.65,3.67l-0.63,1.83c-0.56,1.62-2.37,2.41-3.94,1.74c-2.25-0.96-5.23-1.79-8.71-1.79
		c-6.07,0-9.45,3.5-9.45,7.7c0,4.67,3.38,6.77,10.74,9.57c9.8,3.73,14.82,8.63,14.82,17.04c0,9.92-7.7,16.92-21.12,16.92
		c-5.04,0-9.77-1.01-13.49-2.64c-1.38-0.61-2.06-2.17-1.59-3.6L530.66,215.01z"/>
	<path class="st1" d="M619.08,217.69c0.33,1.44-0.45,2.9-1.84,3.4c-3.16,1.14-8.02,2.25-13.84,2.25
		c-17.04,0-28.12-11.55-28.12-28.82c0-17.39,11.9-29.99,30.34-29.99c4.5,0,8.62,0.83,11.59,1.84c1.5,0.51,2.35,2.1,1.9,3.62
		l-0.64,2.17c-0.48,1.63-2.23,2.48-3.84,1.92c-2.29-0.8-5.25-1.38-9.01-1.38c-12.95,0-19.95,9.57-19.95,21.35
		c0,13.07,8.4,21.12,19.6,21.12c3.99,0,7.05-0.71,9.52-1.57c1.66-0.58,3.46,0.4,3.85,2.11L619.08,217.69z"/>
	<path class="st1" d="M634.57,139.33h4.4c1.62,0,2.94,1.31,2.94,2.94v32.3h0.23c1.63-2.92,4.2-5.48,7.35-7.23
		c3.03-1.75,6.65-2.92,10.5-2.92c7.58,0,19.72,4.67,19.72,24.15v30.67c0,1.62-1.31,2.94-2.94,2.94h-4.4c-1.62,0-2.94-1.31-2.94-2.94
		v-29.5c0-9.1-3.38-16.8-13.07-16.8c-6.65,0-11.9,4.67-13.77,10.27c-0.58,1.4-0.7,2.92-0.7,4.9v31.14c0,1.62-1.31,2.94-2.94,2.94
		h-4.4c-1.62,0-2.94-1.31-2.94-2.94v-76.98C631.64,140.64,632.95,139.33,634.57,139.33z"/>
	<path class="st1" d="M705.26,195.8c-1.76,0-3.14,1.55-2.92,3.3c1.48,11.5,9.72,16.31,19.14,16.31c5.54,0,9.42-0.73,12.65-1.79
		c1.63-0.53,3.36,0.44,3.76,2.11l0.39,1.65c0.35,1.47-0.47,2.95-1.9,3.46c-3.72,1.31-9.12,2.51-16.3,2.51
		c-17.39,0-27.77-11.44-27.77-28.47c0-17.04,10.04-30.46,26.49-30.46c18.44,0,23.34,16.22,23.34,26.6c0,0.75-0.03,1.44-0.07,2.06
		c-0.11,1.54-1.39,2.72-2.93,2.72H705.26z M729.11,188.45c1.76,0,3.14-1.53,2.92-3.28c-0.79-6.18-4.31-13.41-14.05-13.41
		c-8.64,0-13.24,6.62-15.01,12.94c-0.53,1.88,0.88,3.75,2.83,3.75H729.11z"/>
	<path class="st1" d="M800.69,139.33c1.62,0,2.94,1.31,2.94,2.94v65.32c0,3.8,0.07,8,0.25,11.49c0.09,1.68-1.24,3.1-2.93,3.1h-3.27
		c-1.57,0-2.86-1.23-2.93-2.8l-0.33-7.01h-0.23c-3.15,6.3-10.04,11.08-19.25,11.08c-13.65,0-24.15-11.55-24.15-28.7
		c-0.12-18.79,11.55-30.34,25.32-30.34c8.63,0,14.47,4.08,17.04,8.63h0.23v-30.79c0-1.62,1.31-2.94,2.94-2.94H800.69z
		 M793.35,188.69c0-1.28-0.12-3.03-0.47-4.32c-1.52-6.53-7.12-11.9-14.82-11.9c-10.62,0-16.92,9.33-16.92,21.82
		c0,11.44,5.6,20.89,16.69,20.89c6.88,0,13.19-4.55,15.05-12.25c0.35-1.4,0.47-2.8,0.47-4.43V188.69z"/>
	<path class="st1" d="M867.91,206.77c0,4.52,0.07,8.63,0.26,12.31c0.09,1.68-1.24,3.1-2.93,3.1h-3.22c-1.55,0-2.83-1.2-2.93-2.75
		l-0.41-6.47h-0.23c-2.68,4.55-8.63,10.5-18.67,10.5c-8.87,0-19.49-4.9-19.49-24.74v-30.09c0-1.62,1.31-2.94,2.94-2.94h4.4
		c1.62,0,2.94,1.31,2.94,2.94v28.34c0,10.74,3.27,17.97,12.6,17.97c6.88,0,11.67-4.78,13.54-9.33c0.58-1.52,0.93-3.38,0.93-5.25
		v-31.72c0-1.62,1.31-2.94,2.94-2.94h4.4c1.62,0,2.94,1.31,2.94,2.94V206.77z"/>
	<path class="st1" d="M887.88,139.33h4.4c1.62,0,2.94,1.31,2.94,2.94v76.98c0,1.62-1.31,2.94-2.94,2.94h-4.4
		c-1.62,0-2.94-1.31-2.94-2.94v-76.98C884.95,140.64,886.26,139.33,887.88,139.33z"/>
	<path class="st1" d="M921.35,195.8c-1.76,0-3.14,1.55-2.92,3.3c1.48,11.5,9.72,16.31,19.14,16.31c5.54,0,9.42-0.73,12.65-1.79
		c1.63-0.53,3.36,0.44,3.76,2.11l0.39,1.65c0.35,1.47-0.47,2.95-1.9,3.46c-3.72,1.31-9.12,2.51-16.3,2.51
		c-17.39,0-27.77-11.44-27.77-28.47c0-17.04,10.04-30.46,26.49-30.46c18.44,0,23.34,16.22,23.34,26.6c0,0.75-0.03,1.44-0.07,2.06
		c-0.11,1.54-1.39,2.72-2.93,2.72H921.35z M945.2,188.45c1.76,0,3.14-1.53,2.92-3.28c-0.79-6.18-4.31-13.41-14.05-13.41
		c-8.64,0-13.24,6.62-15.01,12.94c-0.53,1.88,0.88,3.75,2.83,3.75H945.2z"/>
</g>
<g>
	<path class="st1" d="M285.91,113.14c0-1.17-0.02-2.19-0.06-3.17c-0.03-0.78,0.59-1.43,1.37-1.43l0,0c0.72,0,1.32,0.56,1.37,1.28
		l0.1,1.52h0.07c0.84-1.61,2.81-3.19,5.61-3.19c2.35,0,6,1.4,6,7.22v8.76c0,0.76-0.61,1.37-1.37,1.37h-0.35
		c-0.76,0-1.37-0.61-1.37-1.37v-8.41c0-2.73-1.02-5.01-3.93-5.01c-2.03,0-3.61,1.44-4.14,3.16c-0.14,0.39-0.21,0.91-0.21,1.44v8.83
		c0,0.76-0.61,1.37-1.37,1.37h-0.35c-0.76,0-1.37-0.61-1.37-1.37V113.14z"/>
	<path class="st1" d="M320.72,116.9c0,6.28-4.35,9.01-8.45,9.01c-4.59,0-8.13-3.37-8.13-8.73c0-5.68,3.72-9.01,8.42-9.01
		C317.43,108.17,320.72,111.71,320.72,116.9z M307.26,117.07c0,3.72,2.14,6.52,5.15,6.52c2.95,0,5.15-2.77,5.15-6.59
		c0-2.88-1.44-6.52-5.08-6.52C308.83,110.48,307.26,113.85,307.26,117.07z"/>
	<path class="st1" d="M337.89,100.63c0.76,0,1.37,0.62,1.37,1.37v19.14c0,0.97,0.01,2.02,0.05,2.96c0.03,0.78-0.59,1.43-1.37,1.43
		l0,0c-0.73,0-1.34-0.58-1.37-1.31l-0.08-1.64h-0.07c-0.95,1.89-3.02,3.33-5.79,3.33c-4.1,0-7.26-3.47-7.26-8.63
		c-0.04-5.65,3.47-9.12,7.61-9.12c2.59,0,4.35,1.23,5.12,2.59h0.07V102c0-0.76,0.62-1.37,1.37-1.37H337.89z M336.18,115.46
		c0-0.39-0.03-0.91-0.14-1.3c-0.46-1.96-2.14-3.58-4.45-3.58c-3.19,0-5.08,2.81-5.08,6.56c0,3.44,1.68,6.28,5.01,6.28
		c2.07,0,3.96-1.37,4.52-3.68c0.11-0.42,0.14-0.84,0.14-1.33V115.46z"/>
	<path class="st1" d="M347.34,117.6c-0.69,0-1.24,0.61-1.13,1.28c0.55,3.24,2.96,4.61,5.71,4.61c1.52,0,2.63-0.18,3.55-0.46
		c0.63-0.19,1.29,0.18,1.45,0.82l0,0c0.14,0.58-0.19,1.16-0.76,1.35c-1.11,0.36-2.65,0.67-4.66,0.67c-5.22,0-8.35-3.44-8.35-8.56
		c0-5.12,3.02-9.15,7.96-9.15c5.54,0,7.01,4.87,7.01,7.99c0,0.12,0,0.23-0.01,0.33c-0.02,0.62-0.52,1.1-1.14,1.1H347.34z
		 M353.92,115.39c0.7,0,1.25-0.62,1.13-1.31c-0.32-1.78-1.41-3.71-4.17-3.71c-2.43,0-3.8,1.74-4.4,3.53
		c-0.25,0.73,0.32,1.49,1.09,1.49H353.92z"/>
	<path class="st1" d="M370.08,116.04L370.08,116.04c0,0.63-0.51,1.14-1.14,1.14h-6.38c-0.63,0-1.14-0.51-1.14-1.14l0,0
		c0-0.63,0.51-1.14,1.14-1.14h6.38C369.57,114.9,370.08,115.41,370.08,116.04z"/>
	<path class="st1" d="M373.69,113.85c0-1.43-0.02-2.72-0.07-3.91c-0.03-0.76,0.57-1.38,1.33-1.38l0,0c0.72,0,1.31,0.57,1.33,1.29
		l0.06,2.04h0.14c0.77-2.28,2.63-3.72,4.7-3.72c0.35,0,0.6,0.04,0.88,0.1v2.91c-0.32-0.07-0.63-0.11-1.05-0.11
		c-2.17,0-3.72,1.65-4.14,3.96c-0.07,0.42-0.14,0.91-0.14,1.44v7.71c0,0.74-0.6,1.34-1.34,1.34h-0.38c-0.74,0-1.34-0.6-1.34-1.34
		V113.85z"/>
	<path class="st1" d="M387.77,117.6c-0.69,0-1.24,0.61-1.13,1.28c0.55,3.24,2.96,4.61,5.71,4.61c1.52,0,2.63-0.18,3.55-0.46
		c0.63-0.19,1.29,0.18,1.45,0.82l0,0c0.14,0.58-0.19,1.16-0.76,1.35c-1.11,0.36-2.65,0.67-4.66,0.67c-5.22,0-8.35-3.44-8.35-8.56
		c0-5.12,3.02-9.15,7.96-9.15c5.54,0,7.01,4.87,7.01,7.99c0,0.12,0,0.23-0.01,0.33c-0.02,0.62-0.52,1.1-1.14,1.1H387.77z
		 M394.34,115.39c0.7,0,1.25-0.62,1.13-1.31c-0.32-1.78-1.41-3.71-4.17-3.71c-2.43,0-3.8,1.74-4.4,3.53
		c-0.25,0.73,0.32,1.49,1.09,1.49H394.34z"/>
	<path class="st1" d="M415.65,100.63c0.76,0,1.37,0.62,1.37,1.37v19.14c0,0.97,0.01,2.02,0.05,2.96c0.03,0.78-0.59,1.43-1.37,1.43
		l0,0c-0.73,0-1.34-0.58-1.37-1.31l-0.08-1.64h-0.07c-0.95,1.89-3.02,3.33-5.79,3.33c-4.1,0-7.26-3.47-7.26-8.63
		c-0.04-5.65,3.47-9.12,7.61-9.12c2.59,0,4.35,1.23,5.12,2.59h0.07V102c0-0.76,0.62-1.37,1.37-1.37H415.65z M413.94,115.46
		c0-0.39-0.03-0.91-0.14-1.3c-0.46-1.96-2.14-3.58-4.45-3.58c-3.19,0-5.08,2.81-5.08,6.56c0,3.44,1.68,6.28,5.01,6.28
		c2.07,0,3.96-1.37,4.52-3.68c0.11-0.42,0.14-0.84,0.14-1.33V115.46z"/>
	<path class="st1" d="M429.3,116.04L429.3,116.04c0,0.63-0.51,1.14-1.14,1.14h-6.38c-0.63,0-1.14-0.51-1.14-1.14l0,0
		c0-0.63,0.51-1.14,1.14-1.14h6.38C428.79,114.9,429.3,115.41,429.3,116.04z"/>
	<path class="st1" d="M445.41,123.91c0.14,0.61-0.22,1.21-0.81,1.4c-0.94,0.3-2.28,0.57-3.84,0.57c-5.12,0-8.45-3.47-8.45-8.66
		c0-5.22,3.58-9.01,9.12-9.01c1.22,0,2.34,0.2,3.2,0.46c0.61,0.18,0.95,0.85,0.77,1.46l-0.02,0.07c-0.19,0.64-0.87,0.98-1.51,0.79
		c-0.65-0.19-1.45-0.33-2.44-0.33c-3.89,0-6,2.88-6,6.42c0,3.93,2.52,6.35,5.89,6.35c1.06,0,1.91-0.17,2.6-0.39
		C444.58,122.83,445.26,123.24,445.41,123.91L445.41,123.91z"/>
	<path class="st1" d="M464.39,116.9c0,6.28-4.35,9.01-8.45,9.01c-4.59,0-8.13-3.37-8.13-8.73c0-5.68,3.72-9.01,8.42-9.01
		C461.09,108.17,464.39,111.71,464.39,116.9z M450.93,117.07c0,3.72,2.14,6.52,5.15,6.52c2.95,0,5.15-2.77,5.15-6.59
		c0-2.88-1.44-6.52-5.08-6.52C452.5,110.48,450.93,113.85,450.93,117.07z"/>
	<path class="st1" d="M468.28,113.14c0-1.17-0.02-2.19-0.06-3.17c-0.03-0.78,0.59-1.43,1.37-1.43l0,0c0.72,0,1.32,0.56,1.37,1.28
		l0.1,1.52h0.07c0.84-1.61,2.81-3.19,5.61-3.19c2.35,0,6,1.4,6,7.22v8.76c0,0.76-0.61,1.37-1.37,1.37h-0.35
		c-0.76,0-1.37-0.61-1.37-1.37v-8.41c0-2.73-1.02-5.01-3.93-5.01c-2.03,0-3.61,1.44-4.14,3.16c-0.14,0.39-0.21,0.91-0.21,1.44v8.83
		c0,0.76-0.61,1.37-1.37,1.37h-0.35c-0.76,0-1.37-0.61-1.37-1.37V113.14z"/>
	<path class="st1" d="M491.31,105.21v2.17c0,0.65,0.53,1.17,1.17,1.17h2.07c0.65,0,1.17,0.53,1.17,1.17l0,0
		c0,0.65-0.53,1.17-1.17,1.17h-2.07c-0.65,0-1.17,0.53-1.17,1.17v7.98c0,2.1,0.6,3.3,2.31,3.3c0.22,0,0.42-0.01,0.61-0.02
		c0.66-0.05,1.22,0.44,1.26,1.1l0,0.08c0.04,0.59-0.36,1.12-0.94,1.23c-0.49,0.09-1.08,0.14-1.73,0.14c-1.44,0-2.59-0.46-3.33-1.3
		c-0.88-0.91-1.19-2.42-1.19-4.42v-8.08c0-0.65-0.53-1.17-1.17-1.17h-0.28c-0.65,0-1.17-0.53-1.17-1.17l0,0
		c0-0.65,0.53-1.17,1.17-1.17h0.28c0.65,0,1.17-0.53,1.17-1.17v-1.99c0-0.53,0.36-1,0.87-1.13l0.67-0.18
		C490.58,103.87,491.31,104.44,491.31,105.21z"/>
	<path class="st1" d="M499.2,113.85c0-1.43-0.02-2.72-0.07-3.91c-0.03-0.76,0.57-1.38,1.33-1.38l0,0c0.72,0,1.31,0.57,1.33,1.29
		l0.06,2.04h0.14c0.77-2.28,2.63-3.72,4.7-3.72c0.35,0,0.6,0.04,0.88,0.1v2.91c-0.32-0.07-0.63-0.11-1.05-0.11
		c-2.17,0-3.72,1.65-4.14,3.96c-0.07,0.42-0.14,0.91-0.14,1.44v7.71c0,0.74-0.6,1.34-1.34,1.34h-0.38c-0.74,0-1.34-0.6-1.34-1.34
		V113.85z"/>
	<path class="st1" d="M514.24,103.78c0.04,1.05-0.74,1.89-1.96,1.89c-1.09,0-1.86-0.84-1.86-1.89c0-1.09,0.81-1.93,1.93-1.93
		C513.51,101.85,514.24,102.7,514.24,103.78z M510.81,123.98v-13.89c0-0.85,0.69-1.54,1.54-1.54l0,0c0.85,0,1.54,0.69,1.54,1.54
		v13.89c0,0.85-0.69,1.54-1.54,1.54l0,0C511.5,125.52,510.81,124.83,510.81,123.98z"/>
	<path class="st1" d="M520.27,125.52c-0.76,0-1.36-0.63-1.33-1.38c0.04-0.95,0.07-2.02,0.07-3v-19.18c0-0.73,0.6-1.33,1.33-1.33
		h0.39c0.73,0,1.33,0.6,1.33,1.33v9.33h0.07c1.09-1.89,3.05-3.12,5.79-3.12c4.21,0,7.19,3.51,7.15,8.66c0,6.07-3.82,9.08-7.61,9.08
		c-2.46,0-4.42-0.95-5.68-3.19h-0.11l-0.08,1.54C521.56,124.97,520.98,125.52,520.27,125.52L520.27,125.52z M522.06,118.72
		c0,0.39,0.07,0.77,0.14,1.12c0.6,2.14,2.38,3.61,4.63,3.61c3.23,0,5.15-2.63,5.15-6.52c0-3.4-1.75-6.31-5.05-6.31
		c-2.1,0-4.07,1.44-4.7,3.79c-0.07,0.35-0.18,0.77-0.18,1.26V118.72z"/>
	<path class="st1" d="M546.64,116.04L546.64,116.04c0,0.63-0.51,1.14-1.14,1.14h-6.38c-0.63,0-1.14-0.51-1.14-1.14l0,0
		c0-0.63,0.51-1.14,1.14-1.14h6.38C546.13,114.9,546.64,115.41,546.64,116.04z"/>
</g>
</svg>
